<svg width="50" height="50" viewBox="0 0 50 50" fill="none" xmlns="http://www.w3.org/2000/svg">
<path d="M19.9392 21.6286L24.0588 15.4492L28.1784 22.6585L19.9392 21.6286Z" fill="#F1AA4C"/>
<path d="M23.9489 41.7102C23.8326 41.7099 23.7178 41.6836 23.6129 41.6331C23.5081 41.5825 23.416 41.5091 23.3434 41.4182L8.66737 22.8801C8.60438 22.8007 8.55765 22.7096 8.52984 22.6121C8.50204 22.5147 8.49371 22.4126 8.50533 22.3119C8.51695 22.2112 8.54829 22.1138 8.59756 22.0252C8.64684 21.9366 8.71308 21.8586 8.7925 21.7956C8.87193 21.7326 8.96298 21.6859 9.06046 21.6581C9.15795 21.6303 9.25995 21.622 9.36066 21.6336C9.56404 21.6571 9.74976 21.7603 9.87698 21.9208L23.9489 39.6926L38.0194 21.9192C38.0823 21.8398 38.1604 21.7735 38.249 21.7243C38.3375 21.675 38.435 21.6437 38.5357 21.632C38.6364 21.6204 38.7384 21.6288 38.8359 21.6566C38.9334 21.6844 39.0244 21.7311 39.1038 21.7941C39.1833 21.8571 39.2495 21.9351 39.2988 22.0237C39.348 22.1123 39.3794 22.2097 39.391 22.3104C39.4026 22.4111 39.3943 22.5131 39.3665 22.6106C39.3387 22.7081 39.292 22.7991 39.229 22.8786L24.553 41.4166C24.481 41.5081 24.3893 41.582 24.2847 41.6328C24.18 41.6836 24.0653 41.7101 23.9489 41.7102Z" fill="#1A3642"/>
<path d="M23.9496 41.7116C23.7773 41.7116 23.61 41.6539 23.4742 41.5478C23.3385 41.4417 23.2421 41.2933 23.2004 41.1261L18.5658 22.588C18.5215 22.3912 18.556 22.1848 18.6619 22.0131C18.7678 21.8413 18.9367 21.7178 19.1324 21.669C19.3282 21.6202 19.5353 21.6499 19.7095 21.7517C19.8836 21.8536 20.011 22.0196 20.0643 22.2142L23.9496 37.7553L27.8349 22.2142C27.8575 22.1137 27.8999 22.0188 27.9597 21.9351C28.0195 21.8513 28.0955 21.7803 28.1831 21.7262C28.2707 21.6722 28.3683 21.6363 28.47 21.6205C28.5717 21.6047 28.6756 21.6094 28.7754 21.6343C28.8753 21.6592 28.9692 21.7039 29.0516 21.7656C29.134 21.8273 29.2032 21.9049 29.2552 21.9937C29.3072 22.0826 29.3409 22.1809 29.3543 22.283C29.3677 22.385 29.3606 22.4888 29.3334 22.588L24.6989 41.1261C24.6572 41.2933 24.5608 41.4417 24.425 41.5478C24.2892 41.6539 24.1219 41.7116 23.9496 41.7116Z" fill="#1A3642"/>
<path d="M20.0643 22.2142L23.9496 37.7553L27.8349 22.2142H20.0643Z" fill="#F1AA4C"/>
<path d="M28.8407 23.1733C28.7105 23.1731 28.5824 23.1402 28.4682 23.0776C28.3541 23.015 28.2574 22.9247 28.1873 22.8149L23.2948 15.0907C23.2216 14.9736 23.181 14.8391 23.1772 14.7011C23.1734 14.5631 23.2066 14.4266 23.2732 14.3057C23.3398 14.1847 23.4375 14.0838 23.5561 14.0132C23.6748 13.9426 23.8102 13.905 23.9482 13.9043H33.7317C33.87 13.9043 34.0058 13.9415 34.1249 14.0119C34.2439 14.0824 34.3419 14.1835 34.4085 14.3047C34.4751 14.426 34.508 14.5629 34.5036 14.7011C34.4992 14.8394 34.4578 14.974 34.3836 15.0907L29.4927 22.8149C29.423 22.9247 29.3267 23.0151 29.2127 23.0778C29.0987 23.1405 28.9708 23.1733 28.8407 23.1733ZM25.351 15.4491L28.8407 20.9565L32.329 15.4491H25.351Z" fill="#1A3642"/>
<path d="M19.0499 23.1733C18.9197 23.1731 18.7916 23.1402 18.6774 23.0776C18.5632 23.015 18.4666 22.9247 18.3964 22.8149L13.5055 15.0907C13.4323 14.9736 13.3917 14.8391 13.3879 14.7011C13.3841 14.5631 13.4172 14.4266 13.4839 14.3057C13.5505 14.1847 13.6482 14.0838 13.7668 14.0132C13.8855 13.9426 14.0209 13.905 14.1589 13.9043H23.9424C24.0807 13.9043 24.2165 13.9415 24.3356 14.0119C24.4546 14.0824 24.5526 14.1835 24.6192 14.3047C24.6858 14.426 24.7186 14.5629 24.7143 14.7011C24.7099 14.8394 24.6685 14.974 24.5943 15.0907L19.7018 22.8149C19.6321 22.9247 19.5358 23.0151 19.4219 23.0778C19.3079 23.1405 19.1799 23.1733 19.0499 23.1733ZM15.5616 15.4491L19.0499 20.9565L22.5397 15.4491H15.5616Z" fill="#1A3642"/>
<path d="M19.056 23.1742H9.2725C9.13417 23.1742 8.99838 23.137 8.87933 23.0666C8.76028 22.9961 8.66232 22.895 8.59571 22.7738C8.52909 22.6526 8.49626 22.5157 8.50063 22.3774C8.505 22.2391 8.54643 22.1046 8.62057 21.9878L13.5131 14.2636C13.5835 14.1545 13.6802 14.0649 13.7942 14.0028C13.9082 13.9407 14.036 13.9082 14.1658 13.9082C14.2956 13.9082 14.4234 13.9407 14.5374 14.0028C14.6514 14.0649 14.748 14.1545 14.8185 14.2636L19.7094 21.9878C19.7826 22.1049 19.8232 22.2394 19.827 22.3774C19.8308 22.5154 19.7977 22.6519 19.7311 22.7729C19.6644 22.8938 19.5668 22.9948 19.4481 23.0653C19.3294 23.1359 19.194 23.1735 19.056 23.1742ZM10.6752 21.6294H17.6533L14.165 16.122L10.6752 21.6294ZM38.6245 23.1742H28.841C28.7027 23.1742 28.5669 23.137 28.4478 23.0666C28.3288 22.9961 28.2308 22.895 28.1642 22.7738C28.0976 22.6526 28.0648 22.5157 28.0691 22.3774C28.0735 22.2391 28.1149 22.1046 28.1891 21.9878L33.08 14.2636C33.3643 13.8171 34.1027 13.8171 34.387 14.2636L39.2795 21.9878C39.3527 22.105 39.3933 22.2396 39.397 22.3778C39.4008 22.5159 39.3675 22.6526 39.3007 22.7735C39.2339 22.8945 39.136 22.9955 39.0171 23.0659C38.8982 23.1364 38.7627 23.1738 38.6245 23.1742ZM30.2437 21.6294H37.2218L33.732 16.122L30.2437 21.6294Z" fill="#1A3642"/>
<path d="M30.2437 21.6294H37.2218L33.732 16.122L30.2437 21.6294Z" fill="#F1AA4C"/>
<path d="M10.6752 21.6294H17.6533L14.165 16.122L10.6752 21.6294Z" fill="#F1AA4C"/>
<path d="M32.0413 23.1718H16.5929C16.3881 23.1718 16.1916 23.0904 16.0467 22.9456C15.9019 22.8007 15.8205 22.6042 15.8205 22.3994C15.8205 22.1945 15.9019 21.998 16.0467 21.8532C16.1916 21.7083 16.3881 21.627 16.5929 21.627H32.0413C32.2462 21.627 32.4427 21.7083 32.5875 21.8532C32.7324 21.998 32.8137 22.1945 32.8137 22.3994C32.8137 22.6042 32.7324 22.8007 32.5875 22.9456C32.4427 23.0904 32.2462 23.1718 32.0413 23.1718Z" fill="#1A3642"/>
<path d="M33.9925 10.8143C33.7877 10.8143 33.5912 10.7329 33.4463 10.5881C33.3015 10.4432 33.2201 10.2467 33.2201 10.0419V8.49703C33.2201 8.29217 33.3015 8.0957 33.4463 7.95085C33.5912 7.80599 33.7877 7.72461 33.9925 7.72461C34.1974 7.72461 34.3938 7.80599 34.5387 7.95085C34.6836 8.0957 34.7649 8.29217 34.7649 8.49703V10.0419C34.7649 10.2467 34.6836 10.4432 34.5387 10.5881C34.3938 10.7329 34.1974 10.8143 33.9925 10.8143ZM37.2691 12.1722C37.1165 12.1722 36.9672 12.1269 36.8403 12.0421C36.7134 11.9573 36.6144 11.8369 36.5559 11.6959C36.4973 11.5549 36.4819 11.3997 36.5115 11.2499C36.5412 11.1002 36.6145 10.9626 36.7222 10.8545L37.8145 9.76225C37.9601 9.62155 38.1552 9.5437 38.3578 9.54546C38.5603 9.54722 38.754 9.62845 38.8972 9.77166C39.0405 9.91488 39.1217 10.1086 39.1235 10.3111C39.1252 10.5137 39.0474 10.7088 38.9067 10.8545L37.8145 11.9467C37.7429 12.0183 37.6579 12.0751 37.5643 12.1138C37.4707 12.1525 37.3704 12.1724 37.2691 12.1722ZM40.1719 15.4488H38.627C38.4222 15.4488 38.2257 15.3674 38.0809 15.2226C37.936 15.0777 37.8546 14.8813 37.8546 14.6764C37.8546 14.4715 37.936 14.2751 38.0809 14.1302C38.2257 13.9854 38.4222 13.904 38.627 13.904H40.1719C40.3767 13.904 40.5732 13.9854 40.7181 14.1302C40.8629 14.2751 40.9443 14.4715 40.9443 14.6764C40.9443 14.8813 40.8629 15.0777 40.7181 15.2226C40.5732 15.3674 40.3767 15.4488 40.1719 15.4488Z" fill="#F15743"/>
</svg>
