<svg width="58" height="58" viewBox="0 0 58 58" fill="none" xmlns="http://www.w3.org/2000/svg">
<path fill-rule="evenodd" clip-rule="evenodd" d="M29 36.3174C36.52 36.3174 42.6152 30.2223 42.6152 22.7022C42.6152 15.1823 36.52 9.08707 29 9.08707C21.4801 9.08707 15.3849 15.1822 15.3849 22.7022C15.3849 30.2223 21.4801 36.3174 29 36.3174ZM34.3004 45.8424L38.1261 54.725L42.1876 48.1802L49.7333 49.7256L45.2724 39.3683C44.7095 39.5649 43.8384 39.744 43.5228 40.0093C43.3115 40.187 42.9828 40.8842 42.8528 41.1374C42.3847 42.0493 41.8768 42.8877 40.96 43.4173C40.0485 43.9438 39.0703 43.9598 38.0534 43.9112C37.7588 43.897 36.9966 43.8351 36.7265 43.9331C36.5398 44.0008 36.1927 44.3223 36.0465 44.4563C35.5016 44.9555 34.955 45.4874 34.3004 45.8424ZM19.9524 43.9107C18.9328 43.9591 17.9555 43.9404 17.042 43.4124C16.1278 42.8841 15.6224 42.0464 15.1549 41.1378C15.0226 40.8807 14.695 40.1882 14.4794 40.0074C14.3535 39.9018 14.0641 39.802 13.866 39.7334L8.26685 51.7599L15.8545 50.4342L19.7245 57.0938L24.7752 46.2456C23.757 46.0368 23.0308 45.4509 22.2877 44.764C22.0787 44.5703 21.5313 44.0275 21.2717 43.9327C21.005 43.8352 20.2436 43.8969 19.9524 43.9107ZM29 38.1299C20.4796 38.1299 13.5724 31.2227 13.5724 22.7023C13.5724 14.1819 20.4796 7.27468 29 7.27468C37.5205 7.27468 44.4277 14.1819 44.4277 22.7023C44.4277 31.2227 37.5205 38.1299 29 38.1299ZM49.4614 19.0944C49.6685 20.2694 50.8859 21.3202 51.0795 22.4181C51.3201 23.7824 49.7034 24.9725 49.4672 26.3114C49.2446 27.573 50.1869 29.1262 49.772 30.2632C49.3546 31.4066 47.6272 31.9957 46.9942 33.0909C46.3596 34.1888 46.7109 35.9795 45.9313 36.9095C45.6076 37.2955 45.1029 37.5152 44.5536 37.6991C43.783 37.957 42.9249 38.1446 42.3567 38.6223C41.3912 39.434 41.1134 41.2361 40.0537 41.8481C39.0155 42.4477 37.3041 41.7959 36.1087 42.2295C35.1853 42.5644 34.4449 43.6243 33.5783 44.1663C33.3429 44.3136 33.0981 44.4225 32.8379 44.4684C31.6194 44.6832 30.2476 43.4819 28.9987 43.4832C27.8784 43.4845 26.6702 44.4141 25.5912 44.4931C25.4475 44.5046 25.303 44.4982 25.1609 44.4741C23.9561 44.2615 23.0785 42.6632 21.8935 42.2304C20.6996 41.7944 18.997 42.4492 17.949 41.8436C16.8976 41.2358 16.6156 39.4335 15.6438 38.6189C15.3636 38.384 15.0118 38.2201 14.6345 38.0833C13.7066 37.7471 12.6238 37.5746 12.0665 36.9118C11.2884 35.9862 11.6415 34.202 11.0015 33.0941C10.3731 32.0065 8.64691 31.4184 8.22811 30.263C7.81871 29.1338 8.76382 27.5876 8.53861 26.3106C8.33142 25.1357 7.11433 24.0849 6.92073 22.987C6.68001 21.6218 8.29631 20.4332 8.53284 19.0938C8.75532 17.8336 7.8135 16.2782 8.22811 15.1422C8.64567 13.998 10.3733 13.4089 11.006 12.3145C11.6404 11.2171 11.2892 9.42612 12.069 8.49574C12.8465 7.56831 14.6704 7.60116 15.6434 6.78304C16.6088 5.97127 16.8874 4.16863 17.9464 3.55713C18.9847 2.95754 20.696 3.60924 21.8914 3.17572C23.066 2.74966 23.9435 1.15183 25.1622 0.936938C26.3809 0.722043 27.7521 1.9235 29.0013 1.92203C30.2726 1.92056 31.6582 0.722836 32.8389 0.931047C34.0437 1.14356 34.9223 2.74253 36.1065 3.17481C37.3008 3.61071 39.0035 2.95606 40.0512 3.56178C41.1023 4.16942 41.3846 5.97229 42.3561 6.78655C43.3254 7.59901 45.1499 7.5614 45.9333 8.4937C46.7118 9.42 46.3584 11.2025 46.9985 12.3113C47.6261 13.3981 49.3527 13.9868 49.7721 15.1424C50.1815 16.2708 49.2361 17.8173 49.4614 19.0944ZM29 11.494C30.9893 11.494 32.6019 12.6277 32.6019 15.2421C32.6019 17.8565 30.9894 19.9761 29 19.9761C27.0107 19.9761 25.3981 17.8566 25.3981 15.2421C25.3981 12.6276 27.0108 11.494 29 11.494ZM20.9959 31.8737V24.6027C20.9959 22.8205 22.5866 21.8252 24.3875 21.3623C27.5089 20.5596 30.5817 20.6104 33.6126 21.3623C35.4176 21.81 37.0042 22.8216 37.0042 24.6027V31.8737H34.2207V26.2742C34.2207 26.0478 34.1308 25.8306 33.9706 25.6705C33.8105 25.5104 33.5934 25.4204 33.3669 25.4204C33.1405 25.4204 32.9233 25.5104 32.7632 25.6705C32.6031 25.8306 32.5131 26.0478 32.5131 26.2742V31.8737H25.4867V26.2742C25.4867 26.0478 25.3968 25.8306 25.2367 25.6705C25.0765 25.5104 24.8594 25.4204 24.6329 25.4204C24.4065 25.4204 24.1893 25.5104 24.0292 25.6705C23.8691 25.8306 23.7791 26.0478 23.7791 26.2742V31.8737H20.9959Z" fill="#1A3642" fill-opacity="0.68"/>
</svg>
