<svg width="28" height="21" viewBox="0 0 28 21" fill="none" xmlns="http://www.w3.org/2000/svg">
<g clip-path="url(#clip0_1353_64152)">
<path d="M27.4938 7.6962C27.5544 5.9381 27.1705 4.19316 26.3777 2.6234C25.8397 1.97929 25.0932 1.54461 24.2681 1.39512C20.8554 1.08501 17.4286 0.957904 14.0023 1.01435C10.5885 0.955342 7.17402 1.07834 3.7733 1.38283C3.10096 1.50531 2.47875 1.82114 1.98261 2.29176C0.878762 3.31123 0.756112 5.05539 0.633463 6.52933C0.455512 9.17942 0.455512 11.8385 0.633463 14.4886C0.668945 15.3182 0.792287 16.1416 1.00141 16.9451C1.1493 17.5655 1.4485 18.1395 1.87223 18.6156C2.37174 19.1112 3.00844 19.445 3.69971 19.5737C6.34394 19.9005 9.00826 20.036 11.672 19.979C15.9647 20.0404 19.73 19.979 24.1822 19.6351C24.8905 19.5143 25.5451 19.1801 26.0588 18.677C26.4021 18.333 26.6586 17.9119 26.8069 17.4487C27.2456 16.1008 27.461 14.6902 27.4447 13.2726C27.4938 12.5848 27.4938 8.43317 27.4938 7.6962ZM11.2304 14.0096V6.4065L18.4913 10.2265C16.4553 11.3565 13.7693 12.6339 11.2304 14.0096Z" fill="black"/>
</g>
<defs>
<clipPath id="clip0_1353_64152">
<rect width="27" height="21" fill="white" transform="translate(0.5)"/>
</clipPath>
</defs>
</svg>
