<svg width="14" height="10" viewBox="0 0 14 10" fill="none" xmlns="http://www.w3.org/2000/svg">
<path fill-rule="evenodd" clip-rule="evenodd" d="M10.9656 0.0671468C10.3704 0.237561 9.74599 0.544099 8.13518 1.45691L6.83743 2.19227L4.34034 1.49892C1.79107 0.791034 1.17243 0.697262 0.806135 0.963498C0.342481 1.30047 0.537665 1.63596 1.94843 2.92582L3.29836 4.16004L2.73356 4.46181C2.21773 4.73759 2.09096 4.75802 1.26801 4.69853C-0.47514 4.57228 -0.428891 5.16005 1.45537 7.0782C2.11456 7.7493 2.26125 7.84455 2.63573 7.84455C2.97629 7.84455 4.57205 7.32786 6.32017 6.65165C6.51109 6.57785 6.52769 6.6823 6.52769 7.95343C6.52769 9.69572 6.66264 9.99647 7.44634 9.99999C7.72299 10.0012 7.9636 9.88737 8.30096 9.59547C8.80825 9.15678 9.083 8.56617 9.91378 6.1286L10.3633 4.81002L11.3211 4.26676C12.6586 3.50836 13.358 2.98564 13.7026 2.487C14.0992 1.9132 14.0991 1.2781 13.7023 0.826688C13.1747 0.226321 11.7708 -0.163327 10.9656 0.0671468ZM8.61947 1.92467C9.52342 1.41615 10.5298 0.906503 10.8559 0.792061C11.5018 0.565334 11.8631 0.591675 12.6637 0.923875C13.3498 1.20862 13.5162 1.57215 13.1909 2.07601C12.8941 2.53582 12.515 2.81546 10.9885 3.70057L9.81358 4.38177L9.0581 6.53891C8.39926 8.42006 8.24831 8.74476 7.87798 9.07674C7.25946 9.63101 7.18475 9.48284 7.15357 7.6403C7.1391 6.78471 7.1257 6.04481 7.12392 5.99611C7.11432 5.73861 6.60453 5.85397 4.76593 6.52938C3.65268 6.93844 2.65672 7.24169 2.55248 7.20343C2.37366 7.13769 0.680319 5.33999 0.745776 5.28539C0.762733 5.27131 1.09642 5.30219 1.4875 5.35408C2.18405 5.44638 2.2182 5.43798 3.17243 4.94002C3.70818 4.66038 4.18203 4.37655 4.22543 4.30934C4.26954 4.24099 3.65755 3.59441 2.83684 2.8427C1.77815 1.87267 1.43545 1.49677 1.60656 1.49302C1.737 1.49007 2.95282 1.794 4.30856 2.16843C5.66418 2.54275 6.81893 2.84906 6.87466 2.84906C6.93039 2.84906 7.71552 2.43307 8.61947 1.92467Z" fill="black"/>
<path d="M10.8559 0.792061C10.5298 0.906503 9.52342 1.41615 8.61947 1.92467C7.71552 2.43307 6.93039 2.84906 6.87466 2.84906C6.81893 2.84906 5.66418 2.54275 4.30856 2.16843C2.95282 1.794 1.737 1.49007 1.60656 1.49302C1.43545 1.49677 1.77815 1.87267 2.83684 2.8427C3.65755 3.59441 4.26954 4.24099 4.22543 4.30934C4.18203 4.37655 3.70818 4.66038 3.17243 4.94002C2.2182 5.43798 2.18405 5.44638 1.4875 5.35408C1.09642 5.30219 0.762733 5.27131 0.745776 5.28539C0.680319 5.33999 2.37366 7.13769 2.55248 7.20343C2.65672 7.24169 3.65268 6.93844 4.76593 6.52938C6.60453 5.85397 7.11432 5.73861 7.12392 5.99611C7.1257 6.04481 7.1391 6.78471 7.15357 7.6403C7.18475 9.48284 7.25946 9.63101 7.87798 9.07674C8.24831 8.74476 8.39926 8.42006 9.0581 6.53891L9.81358 4.38177L10.9885 3.70057C12.515 2.81546 12.8941 2.53582 13.1909 2.07601C13.5162 1.57215 13.3498 1.20862 12.6637 0.923875C11.8631 0.591675 11.5018 0.565334 10.8559 0.792061Z" fill="#F1AA4C"/>
</svg>
