<svg width="20" height="22" viewBox="0 0 20 22" fill="none" xmlns="http://www.w3.org/2000/svg">
<path fill-rule="evenodd" clip-rule="evenodd" d="M5.08419 1.01055C4.91834 1.04067 4.66494 1.11711 4.40965 1.21399C4.03993 1.35431 3.91179 1.42053 3.86435 1.49579C3.78686 1.61875 3.83881 1.83193 3.97261 1.94011C4.00923 1.9697 4.09759 2.01553 4.16898 2.04192C4.35578 2.11101 4.47224 2.17044 4.56404 2.24349C4.6406 2.30443 4.75154 2.4364 4.75154 2.46655C4.75154 2.49696 4.6941 2.53408 4.60065 2.56405C4.33447 2.64942 4.2937 2.77814 4.39939 3.19952C4.4704 3.48257 4.51702 3.61134 4.58753 3.71906C4.71438 3.91291 4.98998 4.09756 5.30967 4.2029L5.46145 4.25292L5.33493 4.28407C5.13758 4.33269 5.03616 4.39409 4.98079 4.49842C4.94326 4.56917 4.94941 4.65197 5.0014 4.77569C5.06639 4.93038 5.07419 4.98792 5.03915 5.05439C5.02274 5.08549 5.00306 5.11095 4.99539 5.11095C4.97146 5.11095 4.84069 5.24369 4.79541 5.31397C4.77165 5.35087 4.73796 5.43242 4.72057 5.49519C4.66897 5.68138 4.63308 5.71394 4.41551 5.77192C4.22002 5.824 4.14954 5.92088 4.12289 6.1741C4.10265 6.36648 4.06107 6.43209 3.87011 6.57302C3.68882 6.70684 3.6518 6.7576 3.58721 6.96107C3.52122 7.169 3.46103 7.25599 3.31932 7.34821C3.19861 7.42679 3.08035 7.46682 2.96893 7.46682C2.87078 7.46682 2.84805 7.44279 2.84805 7.33904C2.84805 7.18178 2.79797 7.10415 2.6968 7.10456C2.62418 7.10485 2.46532 7.18878 2.38118 7.27129C2.30132 7.34959 2.10946 7.64621 2.00007 7.86045C1.90057 8.05534 1.93593 8.16606 2.11132 8.20887C2.1557 8.21971 2.21677 8.2348 2.24705 8.24241C2.27733 8.25004 2.3142 8.27741 2.32899 8.30323C2.35314 8.34544 2.3517 8.36392 2.31463 8.48637C2.24852 8.70474 2.28828 8.76415 2.49487 8.75572L2.61294 8.75092L2.59755 8.8111C2.58328 8.86679 2.57936 9.02498 2.59063 9.08906C2.5933 9.10417 2.63974 9.16668 2.69385 9.22793C2.8119 9.3616 2.86653 9.49284 2.86653 9.64272C2.86653 9.77275 2.85284 9.78189 2.71719 9.7424C2.56521 9.69812 2.36963 9.70503 2.23819 9.75927C2.08721 9.82159 1.95875 9.81905 1.75859 9.74985C1.67267 9.72014 1.5879 9.69584 1.5702 9.69584C1.50773 9.69584 1.44117 9.77382 1.42322 9.86798C1.41382 9.91737 1.39421 9.96943 1.37966 9.98371C1.36403 9.99904 1.29665 10.0142 1.21509 10.0208C1.04143 10.0347 1 10.0655 1 10.1809C1 10.319 1.13679 10.5298 1.35261 10.724C1.56423 10.9145 1.82589 11.0062 2.04023 10.9648C2.15322 10.943 2.29275 10.8836 2.39173 10.8151C2.46419 10.765 2.47565 10.7892 2.42433 10.8841C2.33117 11.0563 2.12047 11.1834 1.92074 11.1879C1.82225 11.1901 1.80481 11.1852 1.77847 11.1479C1.67422 11.0002 1.60555 10.9831 1.50637 11.0804C1.33598 11.2475 1.48905 11.4852 2.06028 11.9408C2.51838 12.3061 2.76539 12.3845 3.15209 12.2875C3.30313 12.2496 3.38049 12.2115 3.5069 12.1124C3.64777 12.0019 3.76825 11.6254 3.74443 11.37L3.73241 11.241L3.78364 11.2313C3.85204 11.2185 3.91992 11.2458 3.91992 11.286C3.91992 11.3039 3.90308 11.3755 3.8825 11.445C3.86193 11.5146 3.84017 11.649 3.83417 11.7436C3.82471 11.8931 3.82864 11.9301 3.86411 12.0245C4.00116 12.3895 3.99835 12.3776 3.98902 12.5501C3.98288 12.6634 3.96252 12.7678 3.92234 12.8921C3.83428 13.1644 3.84587 13.2397 4.00073 13.4018C4.04834 13.4516 4.09201 13.5103 4.09777 13.5322C4.11115 13.5832 4.07813 13.6842 4.00829 13.8058C3.88978 14.0123 3.91208 14.1451 4.18626 14.8654C4.284 15.1223 4.41059 15.4712 4.46755 15.6409C4.57943 15.974 4.6537 16.114 4.86972 16.3985C4.93627 16.4861 5.01572 16.6102 5.04627 16.6742C5.11163 16.8112 5.17659 17.0477 5.17659 17.1486C5.17659 17.3356 5.32362 17.8564 5.45417 18.1317C5.55932 18.3535 5.70613 18.5796 5.85926 18.7556C6.10442 19.0374 6.23345 19.3332 6.41567 20.031C6.45751 20.1912 6.51698 20.3717 6.54784 20.4321C6.66799 20.6672 6.84824 20.8707 7.00668 20.9499C7.18132 21.0373 7.43511 21.008 7.60707 20.8805C7.70153 20.8105 7.71376 20.7887 7.83727 20.4694C7.86811 20.3897 7.90067 20.3133 7.9096 20.2997C7.91884 20.2855 8.02312 20.2566 8.15188 20.2324C8.27621 20.2091 8.40615 20.1809 8.44065 20.1697C8.56553 20.1293 8.56349 20.0305 8.43653 19.9702C8.39194 19.949 8.35158 19.9256 8.34687 19.9181C8.34215 19.9106 8.3754 19.8789 8.42077 19.8475C8.54209 19.7636 8.57685 19.697 8.57693 19.5479L8.577 19.4238L8.65554 19.4336C8.91758 19.4664 8.9473 19.4675 8.9743 19.4456C9.01464 19.4127 9.00843 19.3469 8.95585 19.25C8.89999 19.1471 8.8983 19.1035 8.94661 19.0106C9.00579 18.8969 8.99608 18.8238 8.90965 18.7318C8.84661 18.6647 8.83578 18.6415 8.83606 18.5736C8.83647 18.4796 8.93085 18.244 9.04214 18.0592C9.25799 17.7008 9.2691 17.6576 9.20794 17.415C9.15278 17.1961 9.12767 16.9038 9.12473 16.4463L9.12218 16.0476L9.17405 15.9389C9.22796 15.8259 9.30661 15.7305 9.3459 15.7305C9.35841 15.7305 9.38671 15.7592 9.40877 15.7942C9.45647 15.8698 9.5069 15.9 9.55885 15.8838C9.60494 15.8694 9.63429 15.8024 9.67567 15.6167C9.69467 15.5314 9.72366 15.4568 9.749 15.4279C9.7889 15.3824 9.80023 15.3799 9.98324 15.3769C10.1953 15.3735 10.3404 15.3326 10.4442 15.2469C10.5305 15.1758 10.5444 15.1366 10.5448 14.9634C10.5452 14.8076 10.5467 14.802 10.6022 14.7534C10.6335 14.7259 10.725 14.677 10.8055 14.6448C11.208 14.4836 11.4068 14.3634 11.5374 14.2023C11.5792 14.1507 11.6608 14.0107 11.7188 13.8911C11.7768 13.7715 11.8634 13.6229 11.9113 13.5609C12.0163 13.4247 12.2364 13.2216 12.4829 13.0334C12.583 12.957 12.7535 12.8243 12.8617 12.7387C12.97 12.6531 13.1386 12.5288 13.2364 12.4625C13.5527 12.2482 13.6084 12.149 13.4924 12.0059C13.4617 11.968 13.4318 11.9184 13.426 11.8956C13.3912 11.7598 13.6113 11.4855 13.9248 11.274L14.0068 11.2187L13.9865 11.2715C13.9595 11.3416 13.9895 11.4054 14.0695 11.4483C14.1655 11.4997 14.4872 11.494 14.6109 11.4388C14.8117 11.349 14.8856 11.2135 14.8438 11.0116C14.8121 10.8586 14.6901 10.5988 14.523 10.3288C14.3372 10.0284 14.3249 9.9796 14.3894 9.79653C14.4515 9.61984 14.4422 9.55041 14.3443 9.46042C14.3062 9.42544 14.2151 9.3733 14.1419 9.34454C13.9914 9.28541 13.9548 9.24678 13.9548 9.14696C13.9548 9.07043 13.976 9.02038 14.0357 8.95544C14.0999 8.88566 14.152 8.8752 14.3101 8.90032C14.4416 8.92118 14.4559 8.92034 14.4903 8.88979C14.5377 8.84773 14.5375 8.80706 14.4893 8.71448C14.4101 8.56227 14.2451 8.44585 14.1079 8.44553C14.0529 8.44538 14.0235 8.38549 14.0235 8.27371C14.0235 8.17632 14.0642 8.07627 14.111 8.05865C14.127 8.05262 14.206 8.08731 14.2951 8.1395C14.3809 8.18979 14.5244 8.26189 14.614 8.29973C14.7115 8.34098 14.7912 8.3875 14.8128 8.41582C14.8462 8.4597 14.847 8.47158 14.8248 8.58148C14.7683 8.85983 14.8751 8.89329 15.4647 8.78202C16.0575 8.67011 16.2893 8.63916 16.401 8.65692C16.4948 8.67185 16.5183 8.7362 16.4786 8.86991C16.4379 9.00709 16.3666 9.081 16.2149 9.14306C16.0011 9.23056 15.8953 9.32421 15.8198 9.49289C15.7695 9.60532 15.7477 9.76237 15.7676 9.86871C15.7911 9.99364 15.8815 10.1668 15.9699 10.2562C16.113 10.4007 16.2262 10.4385 16.2944 10.3643C16.3249 10.3311 16.3284 10.305 16.3212 10.1694C16.3025 9.82166 16.3079 9.7362 16.351 9.69397C16.4031 9.64285 16.5056 9.65858 16.5597 9.72607C16.6111 9.79017 16.628 9.86539 16.6513 10.1343C16.6813 10.4809 16.7503 10.6297 16.918 10.7093C17.0799 10.7861 17.2024 10.7453 17.2448 10.6004C17.2745 10.4989 17.2646 10.1037 17.2251 9.81364C17.1738 9.43622 17.1621 9.29716 17.1819 9.29716C17.1911 9.29716 17.243 9.32644 17.2972 9.36223C17.5584 9.5347 17.6889 9.50478 17.7839 9.25065C17.8185 9.15818 17.8243 9.10379 17.8253 8.86223C17.826 8.70773 17.8193 8.50794 17.8105 8.41823L17.7945 8.25513L17.8638 8.12828C17.9887 7.89974 18.004 7.86415 18.0142 7.77825C18.0214 7.71823 18.0129 7.66031 17.9855 7.58067C17.9641 7.51867 17.9466 7.4555 17.9466 7.44026C17.9466 7.39752 18.0623 7.28136 18.331 7.05409C18.6102 6.81805 18.6179 6.81582 18.7878 6.92149C18.9219 7.00491 19 6.99119 19 6.88422C19 6.84757 18.9817 6.82124 18.9307 6.78467C18.8008 6.69145 18.8005 6.68866 18.9029 6.49455C18.9758 6.35628 18.9544 6.32312 18.7664 6.28321C18.5817 6.244 18.4393 6.17907 18.3962 6.11433C18.3714 6.07713 18.3635 6.03463 18.3664 5.95428C18.3723 5.79049 18.3293 5.66677 18.2303 5.56293C18.0954 5.42156 17.9905 5.40877 17.8466 5.51616C17.6866 5.63558 17.4903 5.68243 17.2349 5.66211C17.0495 5.64736 17.0212 5.66645 16.9884 5.82837C16.9454 6.04141 16.8121 6.1984 16.5095 6.39278C16.4032 6.46105 16.3257 6.52906 16.2547 6.6163C16.1426 6.75404 16.1006 6.78132 15.8953 6.84976C15.7641 6.89349 15.7564 6.89911 15.7509 6.95446C15.746 7.00404 15.7545 7.01852 15.8063 7.04952C15.84 7.06964 15.9069 7.09124 15.9549 7.09751C16.0372 7.10828 16.043 7.11268 16.0545 7.17279C16.0613 7.20791 16.0593 7.28228 16.0503 7.33806L16.0339 7.43946L15.8676 7.47027C15.7761 7.48719 15.5474 7.51387 15.3593 7.52951C15.1713 7.54515 14.9676 7.56985 14.9066 7.58442C14.8456 7.59897 14.7375 7.6158 14.6663 7.62184C14.5487 7.63181 14.5277 7.62813 14.4354 7.58152C14.2541 7.48995 14.1581 7.29401 14.1581 7.0154C14.1581 6.78164 14.1191 6.70569 13.9991 6.70569C13.8528 6.70569 13.6733 6.83764 13.5925 7.00471C13.5583 7.07533 13.5486 7.12585 13.5484 7.23377C13.5482 7.40039 13.5895 7.62546 13.651 7.7925C13.7035 7.93546 13.7073 7.98426 13.6669 7.99949C13.5804 8.03203 12.7427 7.98941 12.2887 7.92935C12.0492 7.89766 11.9223 7.8556 11.7491 7.75058C11.442 7.56426 11.301 7.52371 10.7017 7.4493C10.4413 7.41697 10.4035 7.40753 10.2772 7.34334C9.68886 7.04416 9.58408 6.99731 9.30578 6.90895C9.14382 6.85754 8.9641 6.80259 8.90642 6.78686C8.68266 6.72586 8.61942 6.62748 8.64093 6.37386C8.66031 6.14521 8.73496 5.99846 8.93745 5.79087C9.07147 5.65347 9.0869 5.61541 9.04851 5.51681C9.01131 5.42133 8.94107 5.37289 8.66815 5.25458C8.21536 5.0583 8.02728 4.94178 7.78537 4.70759C7.48462 4.41644 7.38198 4.18596 7.47987 4.02159C7.52879 3.93946 7.55361 3.93861 7.57948 4.01815C7.64278 4.21269 7.70609 4.26379 7.83643 4.2255C7.92675 4.19897 8.05079 4.06847 8.07723 3.97217C8.10614 3.86692 8.07513 3.79769 7.88548 3.54397C7.70023 3.29613 7.61603 3.14466 7.61598 3.05915C7.61594 3.00887 7.63684 2.98019 7.75176 2.87287C7.82645 2.8031 7.94015 2.70932 8.0044 2.66446C8.28915 2.46572 8.34515 2.38531 8.34515 2.17517C8.34515 1.96948 8.26503 1.84192 8.07803 1.7499C7.9567 1.69017 7.81243 1.66184 7.68317 1.67233C7.57163 1.68139 7.1658 1.8023 6.89655 1.90669C6.58965 2.02568 6.16482 1.97749 6.04312 1.8099C6.01723 1.77423 5.99868 1.71062 5.98868 1.62326C5.98035 1.55033 5.96037 1.4598 5.94427 1.42205C5.87381 1.25667 5.66196 1.0819 5.4633 1.02526C5.37078 0.998897 5.18757 0.991775 5.08419 1.01055ZM5.06369 1.13418C4.80972 1.17927 4.19968 1.3967 4.01766 1.50702C3.93735 1.5557 3.92225 1.63576 3.9724 1.74696C4.01581 1.84322 4.06451 1.87641 4.29492 1.96689C4.3843 2.00199 4.49063 2.05127 4.53123 2.0764C4.71621 2.19092 4.86242 2.36844 4.86242 2.47855C4.86242 2.56158 4.80624 2.61147 4.64452 2.67208C4.42608 2.75393 4.41858 2.78842 4.52728 3.21121C4.61831 3.56522 4.6557 3.64241 4.80672 3.78803C4.95283 3.92892 5.11622 4.01793 5.39043 4.106C5.616 4.17847 5.6386 4.19176 5.6386 4.25194C5.6386 4.31044 5.58083 4.34302 5.3968 4.38835C5.07245 4.46825 5.02631 4.53573 5.12906 4.77986C5.21244 4.97795 5.18585 5.11272 5.04218 5.22004C4.94442 5.29308 4.8697 5.39733 4.8411 5.50057C4.79384 5.67119 4.78078 5.69843 4.71545 5.76249C4.66193 5.81497 4.6183 5.83688 4.51891 5.86122C4.30982 5.9124 4.26569 5.95932 4.24445 6.15299C4.22318 6.34689 4.21575 6.37306 4.15743 6.45941C4.12579 6.50624 4.03513 6.59292 3.95594 6.65203C3.78 6.78337 3.747 6.8272 3.70067 6.99112C3.64781 7.17817 3.60956 7.24733 3.50098 7.35207C3.24176 7.60218 2.8107 7.66589 2.73916 7.46467C2.72791 7.43297 2.71869 7.36797 2.71869 7.32021C2.71869 7.27244 2.71209 7.22937 2.70401 7.22448C2.67515 7.20699 2.54174 7.28152 2.46284 7.35921C2.37739 7.44334 2.13143 7.83345 2.07908 7.96788C2.04023 8.06764 2.04884 8.07728 2.20903 8.11311C2.43124 8.1628 2.48313 8.25816 2.42023 8.50107C2.40147 8.5735 2.39101 8.63749 2.39698 8.64329C2.40295 8.64909 2.46223 8.65382 2.52872 8.65382C2.639 8.65382 2.65297 8.65819 2.68769 8.70358C2.72373 8.75065 2.7243 8.75802 2.69828 8.8395C2.6589 8.9628 2.6781 9.04172 2.7706 9.1367C2.84489 9.21297 2.90651 9.31618 2.94608 9.42105C2.96194 9.46308 2.97425 9.50538 2.98242 9.54632C2.99519 9.61028 2.99784 9.67093 2.98806 9.72205C2.96067 9.86518 2.86163 9.90546 2.67417 9.84968C2.53564 9.80847 2.40289 9.81525 2.26998 9.87032C2.10687 9.9379 1.9618 9.93779 1.75487 9.86992C1.66692 9.84107 1.58287 9.82201 1.56811 9.82757C1.55332 9.83313 1.53664 9.87132 1.531 9.91244C1.51091 10.0594 1.41801 10.1305 1.24546 10.131C1.19685 10.1312 1.14579 10.1383 1.13201 10.1469C1.06816 10.1866 1.19567 10.4116 1.38362 10.591C1.57729 10.7757 1.74299 10.8558 1.93158 10.8555C2.06442 10.8554 2.13304 10.8326 2.31208 10.729C2.39844 10.6791 2.47953 10.6382 2.49226 10.6382C2.53359 10.6382 2.58932 10.7094 2.58932 10.7621C2.58932 10.8424 2.48605 11.0254 2.39348 11.1091C2.22666 11.2599 1.94907 11.3436 1.78834 11.2915C1.75142 11.2796 1.69657 11.2405 1.66648 11.2047C1.62002 11.1494 1.60744 11.1431 1.5831 11.163C1.48482 11.2429 1.65107 11.4593 2.07187 11.799C2.36307 12.0341 2.40566 12.0638 2.5422 12.1264C2.82427 12.2559 3.1836 12.2179 3.42087 12.0336C3.47724 11.9899 3.50267 11.9486 3.54656 11.8295C3.62107 11.6273 3.64696 11.4564 3.62026 11.343C3.59424 11.2324 3.61554 11.1805 3.70384 11.1394C3.78418 11.102 3.86843 11.1011 3.93877 11.1367C4.04542 11.1908 4.05401 11.2651 3.9846 11.5334C3.92886 11.7489 3.92714 11.8651 3.97773 11.9973C4.10424 12.3281 4.10883 12.3465 4.10866 12.5229C4.10853 12.671 4.09901 12.7242 4.04067 12.9035C3.9593 13.1535 3.96435 13.1884 4.10443 13.3453C4.15529 13.4023 4.20215 13.4695 4.20858 13.4946C4.22904 13.5746 4.20103 13.6894 4.12132 13.8523L4.04385 14.0106L4.07454 14.1638C4.09144 14.2482 4.17251 14.4945 4.25469 14.7112C4.41616 15.1371 4.485 15.3298 4.59588 15.6663C4.67329 15.9013 4.76475 16.066 4.96196 16.3258C5.16744 16.5964 5.2548 16.8034 5.28801 17.0985C5.33235 17.4923 5.4295 17.8112 5.61935 18.1861C5.70785 18.3608 5.78695 18.4867 5.87342 18.5905C6.113 18.878 6.13251 18.9053 6.21113 19.0615C6.30322 19.2445 6.39908 19.5226 6.50595 19.9167C6.61556 20.3209 6.61807 20.3277 6.71574 20.4873C6.93974 20.8533 7.18062 20.9662 7.45583 20.8342C7.51295 20.8068 7.57497 20.7624 7.59364 20.7356C7.61232 20.7088 7.66347 20.5907 7.70735 20.473C7.81112 20.1947 7.84087 20.1647 8.04354 20.1338C8.1273 20.121 8.23328 20.1012 8.27906 20.0897L8.3623 20.0689L8.29405 20.0276C8.17383 19.9547 8.17936 19.8638 8.30889 19.7837C8.44189 19.7014 8.47129 19.6537 8.46118 19.5361C8.44995 19.4055 8.46993 19.3591 8.5518 19.3256C8.61184 19.3009 8.63265 19.3009 8.74135 19.3248C8.80851 19.3396 8.86541 19.3499 8.86779 19.3475C8.87018 19.3453 8.85563 19.3117 8.83545 19.2728C8.78857 19.1827 8.78868 19.0648 8.83573 18.9744C8.85606 18.9353 8.87269 18.8937 8.87269 18.882C8.87269 18.8702 8.83994 18.8258 8.79991 18.7832C8.75556 18.736 8.72213 18.6796 8.71431 18.6387C8.68984 18.5109 8.79356 18.2428 9.00161 17.8961C9.13506 17.6737 9.14513 17.627 9.09667 17.4555C9.04938 17.2882 9.0251 17.0675 9.00263 16.6004C8.98141 16.1595 8.9937 16.0477 9.08302 15.869C9.15461 15.7259 9.17163 15.7029 9.24942 15.644C9.32676 15.5855 9.38423 15.5924 9.45811 15.6693C9.49282 15.7054 9.52357 15.7318 9.52648 15.7281C9.52936 15.7245 9.54242 15.6725 9.55553 15.6127C9.59086 15.4513 9.62714 15.3746 9.6964 15.315C9.75624 15.2635 9.76506 15.2615 9.93011 15.2636C10.1378 15.2662 10.2957 15.2259 10.3723 15.1507C10.422 15.102 10.4251 15.0901 10.4251 14.9463C10.4251 14.7024 10.468 14.6591 10.8783 14.4886C11.1692 14.3678 11.3559 14.2466 11.4568 14.113C11.4963 14.0607 11.5788 13.916 11.6402 13.7914C11.764 13.5401 11.8908 13.3789 12.1265 13.1733C12.2916 13.0293 13.0241 12.4632 13.226 12.3235C13.3052 12.2687 13.3864 12.202 13.4063 12.1753L13.4426 12.1268L13.3817 12.0514C13.2451 11.8823 13.3045 11.6764 13.5641 11.4192C13.7831 11.2023 14.1425 10.9818 14.2319 11.0097C14.2961 11.0296 14.278 11.1052 14.1858 11.2018C14.1401 11.2498 14.1027 11.3013 14.1027 11.3163C14.1027 11.3581 14.2412 11.387 14.3765 11.3735C14.5278 11.3584 14.627 11.3184 14.6871 11.2484C14.7313 11.1969 14.7346 11.1817 14.7265 11.0707C14.7191 10.9689 14.6993 10.9121 14.6042 10.719C14.5417 10.5923 14.4451 10.4183 14.3894 10.3321C14.2193 10.0689 14.1954 9.92811 14.287 9.72741C14.3459 9.59818 14.3214 9.56266 14.0988 9.45507C13.8787 9.34866 13.8342 9.29735 13.8358 9.15218C13.8376 8.99696 13.9404 8.83948 14.0715 8.7909C14.1357 8.76712 14.2585 8.76601 14.3384 8.78847C14.3714 8.79775 14.3984 8.79934 14.3984 8.79204C14.3984 8.76194 14.2799 8.62376 14.2346 8.60103C14.2078 8.58757 14.1491 8.57059 14.1043 8.56326C14.0067 8.54735 13.9466 8.49353 13.9195 8.3979C13.858 8.18067 13.9494 7.9652 14.1119 7.94443C14.1757 7.93629 14.2018 7.94517 14.3023 8.0092C14.4334 8.09272 14.5796 8.1663 14.7333 8.22612C14.8759 8.28159 14.9373 8.34812 14.9481 8.45879C14.9528 8.50694 14.9478 8.57814 14.9368 8.617C14.8965 8.76014 14.9421 8.76315 15.508 8.65482C16.4579 8.47294 16.6441 8.50004 16.6109 8.81525C16.5895 9.01876 16.4844 9.14816 16.2561 9.25219C15.9824 9.37695 15.8876 9.50706 15.8866 9.75927C15.8861 9.88112 15.894 9.92014 15.9362 10.0039C15.9857 10.1022 16.1086 10.2422 16.1767 10.2779C16.2105 10.2957 16.2112 10.287 16.1993 10.0096C16.1871 9.72763 16.1876 9.72201 16.2311 9.65987C16.3649 9.46837 16.6453 9.53555 16.7186 9.77667C16.7338 9.8269 16.7545 9.96586 16.7645 10.0855C16.7878 10.3651 16.8228 10.4841 16.9038 10.5591C16.9823 10.6316 17.07 10.6539 17.1124 10.6121C17.1622 10.5632 17.1502 10.0764 17.0893 9.67129C17.0348 9.30879 17.0406 9.22909 17.1241 9.19179C17.1818 9.16601 17.232 9.18317 17.3863 9.28143C17.537 9.3774 17.5893 9.37327 17.6456 9.26091C17.724 9.1045 17.7532 8.70003 17.7041 8.45245C17.676 8.31071 17.7126 8.15427 17.818 7.96591C17.9001 7.81933 17.9141 7.70069 17.8635 7.58183C17.8323 7.50868 17.8277 7.41742 17.852 7.35468C17.8719 7.30334 18.0147 7.16721 18.3045 6.92338L18.5239 6.73884L18.621 6.74491L18.7181 6.751L18.7096 6.68757C18.7032 6.64056 18.7156 6.59696 18.7575 6.51916C18.7957 6.44836 18.8067 6.41228 18.7915 6.40835C18.4308 6.31507 18.3504 6.27323 18.2839 6.14436C18.2519 6.08242 18.2423 6.03273 18.2423 5.92987C18.2423 5.77434 18.2124 5.69845 18.1195 5.61848C18.0431 5.55269 17.9998 5.55023 17.9223 5.60728C17.7501 5.73393 17.5556 5.78725 17.2953 5.77918L17.1264 5.77393L17.097 5.89236C17.043 6.10957 16.8961 6.27886 16.5863 6.48098C16.4997 6.53752 16.4064 6.6124 16.3792 6.64739C16.2269 6.84271 16.177 6.8811 15.998 6.94077L15.9048 6.97184L15.9786 6.9847C16.1001 7.00591 16.1162 7.01404 16.145 7.06852C16.178 7.13106 16.1813 7.32572 16.1515 7.44207C16.1357 7.50356 16.1185 7.52842 16.0827 7.54178C15.9962 7.57401 15.6132 7.62902 15.3501 7.64697C15.2078 7.65669 15.0094 7.68128 14.9092 7.70165C14.5231 7.78005 14.3266 7.72852 14.1792 7.51028C14.0828 7.36762 14.0449 7.24236 14.0316 7.02283L14.0195 6.82349L13.9686 6.82691C13.8461 6.83516 13.6894 7.00605 13.6664 7.15643C13.6471 7.28256 13.69 7.54364 13.766 7.76221L13.834 7.95791L13.7974 8.02498C13.7283 8.15146 13.5586 8.16016 12.6704 8.0827C12.0516 8.02872 11.9489 8.00577 11.7268 7.87172C11.413 7.68231 11.2713 7.63853 10.7699 7.57594C10.601 7.55484 10.4231 7.52585 10.3746 7.51149C10.3261 7.49714 10.1665 7.4205 10.0198 7.34118C9.71439 7.176 9.39236 7.04605 9.04966 6.94967C8.91865 6.91283 8.78467 6.87171 8.7519 6.8583C8.57582 6.78614 8.51008 6.647 8.52624 6.38049C8.54189 6.12211 8.62326 5.95107 8.84277 5.71519C8.89989 5.65381 8.94661 5.59095 8.94661 5.57547C8.94661 5.52207 8.84576 5.45605 8.60554 5.35219C8.15119 5.15575 7.93118 5.01912 7.69293 4.78549C7.47385 4.57066 7.32033 4.3195 7.32033 4.17594C7.32033 4.07498 7.36415 3.96371 7.43106 3.89474C7.54333 3.77899 7.64673 3.81013 7.69047 3.97283C7.70199 4.01572 7.72348 4.06924 7.73819 4.09176C7.76297 4.12967 7.7687 4.13081 7.81524 4.10707C7.89385 4.06697 7.94915 3.99858 7.96103 3.92671C7.97077 3.86786 7.9614 3.84682 7.87308 3.7293C7.70635 3.50745 7.57577 3.31164 7.5396 3.22928C7.49854 3.13573 7.49499 3.00811 7.53152 2.93883C7.56878 2.86816 7.79254 2.66555 7.96216 2.54892C8.14862 2.42069 8.18902 2.37647 8.21726 2.26971C8.29009 1.99434 8.08017 1.78799 7.7269 1.78768C7.6096 1.78759 7.36276 1.85928 6.86756 2.03729C6.69739 2.09846 6.40808 2.10373 6.22723 2.04896C5.99615 1.97898 5.89439 1.86042 5.8702 1.63297C5.84372 1.3841 5.67375 1.20188 5.4037 1.13291C5.27927 1.10112 5.24922 1.10125 5.06369 1.13418Z" fill="black"/>
<path d="M4.25469 14.7112C4.41616 15.1371 4.485 15.3298 4.59588 15.6663C4.67329 15.9013 4.76475 16.066 4.96196 16.3258C5.16744 16.5964 5.2548 16.8034 5.28801 17.0985C5.33235 17.4923 5.4295 17.8112 5.61935 18.1861C5.70785 18.3608 5.78695 18.4867 5.87342 18.5905C6.113 18.878 6.13251 18.9053 6.21113 19.0615C6.30322 19.2445 6.39908 19.5226 6.50595 19.9167C6.61556 20.3209 6.61807 20.3277 6.71574 20.4873C6.93974 20.8533 7.18062 20.9662 7.45583 20.8342C7.51295 20.8068 7.57497 20.7624 7.59364 20.7356C7.61232 20.7088 7.66347 20.5907 7.70735 20.473C7.81112 20.1947 7.84087 20.1647 8.04354 20.1338C8.1273 20.121 8.23328 20.1012 8.27906 20.0897L8.3623 20.0689L8.29405 20.0276C8.17383 19.9547 8.17936 19.8638 8.30889 19.7837C8.44189 19.7014 8.47129 19.6537 8.46118 19.5361C8.44995 19.4055 8.46993 19.3591 8.5518 19.3256C8.61184 19.3009 8.63265 19.3009 8.74135 19.3248C8.80851 19.3396 8.86541 19.3499 8.86779 19.3475C8.87018 19.3453 8.85563 19.3117 8.83545 19.2728C8.78857 19.1827 8.78868 19.0648 8.83573 18.9744C8.85606 18.9353 8.87269 18.8937 8.87269 18.882C8.87269 18.8702 8.83994 18.8258 8.79991 18.7832C8.75556 18.736 8.72213 18.6796 8.71431 18.6387C8.68984 18.5109 8.79356 18.2428 9.00161 17.8961C9.13506 17.6737 9.14513 17.627 9.09667 17.4555C9.04938 17.2882 9.0251 17.0675 9.00263 16.6004C8.98141 16.1595 8.9937 16.0477 9.08302 15.869C9.15461 15.7259 9.17163 15.7029 9.24942 15.644C9.32676 15.5855 9.38423 15.5924 9.45811 15.6693C9.49282 15.7054 9.52357 15.7318 9.52648 15.7281C9.52936 15.7245 9.54242 15.6725 9.55553 15.6127C9.59086 15.4513 9.62714 15.3746 9.6964 15.315C9.75624 15.2635 9.76506 15.2615 9.93011 15.2636C10.1378 15.2662 10.2957 15.2259 10.3723 15.1507C10.422 15.102 10.4251 15.0901 10.4251 14.9463C10.4251 14.7024 10.468 14.6591 10.8783 14.4886C11.1692 14.3678 11.3559 14.2466 11.4568 14.113C11.4963 14.0607 11.5788 13.916 11.6402 13.7914C11.764 13.5401 11.8908 13.3789 12.1265 13.1733C12.1265 13.0137 11.1426 13.1733 10.7549 13.1733C10.3672 13.1733 10.0598 13.1733 10 13C9.94022 12.8267 9.67567 12.8921 9.3459 12.6572C9.01614 12.4223 8.46118 13.5609 7.83727 14.5555C7.21335 15.5501 7.23909 14.8654 7.00668 15.1507C6.77426 15.436 6.50595 15.1507 6.41567 14.7112C6.34345 14.3596 4.94493 14.5647 4.25469 14.7112Z" fill="black"/>
<path d="M4.25469 14.7112C4.17251 14.4945 4.09144 14.2482 4.07454 14.1638L4.04385 14.0106L4.12132 13.8523C4.20103 13.6894 4.22904 13.5746 4.20858 13.4946C4.20215 13.4695 4.15529 13.4023 4.10443 13.3453C3.96435 13.1884 3.9593 13.1535 4.04067 12.9035C4.09901 12.7242 4.10853 12.671 4.10866 12.5229C4.10883 12.3465 4.10424 12.3281 3.97773 11.9973C3.92714 11.8651 3.92886 11.7489 3.9846 11.5334C4.05401 11.2651 4.04542 11.1908 3.93877 11.1367C3.86843 11.1011 3.78418 11.102 3.70384 11.1394C3.61554 11.1805 3.59424 11.2324 3.62026 11.343C3.64696 11.4564 3.62107 11.6273 3.54656 11.8295C3.50267 11.9486 3.47724 11.9899 3.42087 12.0336C3.1836 12.2179 2.82427 12.2559 2.5422 12.1264C2.40566 12.0638 2.36307 12.0341 2.07187 11.799C1.65107 11.4593 1.48482 11.2429 1.5831 11.163C1.60744 11.1431 1.62002 11.1494 1.66648 11.2047C1.69657 11.2405 1.75142 11.2796 1.78834 11.2915C1.94907 11.3436 2.22666 11.2599 2.39348 11.1091C2.48605 11.0254 2.58932 10.8424 2.58932 10.7621C2.58932 10.7094 2.53359 10.6382 2.49226 10.6382C2.47953 10.6382 2.39844 10.6791 2.31208 10.729C2.13304 10.8326 2.06442 10.8554 1.93158 10.8555C1.74299 10.8558 1.57729 10.7757 1.38362 10.591C1.19567 10.4116 1.06816 10.1866 1.13201 10.1469C1.14579 10.1383 1.19685 10.1312 1.24546 10.131C1.41801 10.1305 1.51091 10.0594 1.531 9.91244C1.53664 9.87132 1.55332 9.83313 1.56811 9.82757C1.58287 9.82201 1.66692 9.84107 1.75487 9.86992C1.9618 9.93779 2.10687 9.9379 2.26998 9.87032C2.40289 9.81525 2.53564 9.80847 2.67417 9.84968C2.86163 9.90546 2.96067 9.86518 2.98806 9.72205C2.99784 9.67093 2.99519 9.61028 2.98242 9.54632M4.25469 14.7112C4.41616 15.1371 4.485 15.3298 4.59588 15.6663C4.67329 15.9013 4.76475 16.066 4.96196 16.3258C5.16744 16.5964 5.2548 16.8034 5.28801 17.0985C5.33235 17.4923 5.4295 17.8112 5.61935 18.1861C5.70785 18.3608 5.78695 18.4867 5.87342 18.5905C6.113 18.878 6.13251 18.9053 6.21113 19.0615C6.30322 19.2445 6.39908 19.5226 6.50595 19.9167C6.61556 20.3209 6.61807 20.3277 6.71574 20.4873C6.93974 20.8533 7.18062 20.9662 7.45583 20.8342C7.51295 20.8068 7.57497 20.7624 7.59364 20.7356C7.61232 20.7088 7.66347 20.5907 7.70735 20.473C7.81112 20.1947 7.84087 20.1647 8.04354 20.1338C8.1273 20.121 8.23328 20.1012 8.27906 20.0897L8.3623 20.0689L8.29405 20.0276C8.17383 19.9547 8.17936 19.8638 8.30889 19.7837C8.44189 19.7014 8.47129 19.6536 8.46118 19.5361C8.44995 19.4055 8.46993 19.3591 8.5518 19.3256C8.61184 19.3009 8.63265 19.3009 8.74135 19.3248C8.80851 19.3396 8.86541 19.3499 8.86779 19.3475C8.87018 19.3453 8.85563 19.3117 8.83545 19.2728C8.78857 19.1827 8.78868 19.0648 8.83573 18.9744C8.85606 18.9353 8.87269 18.8937 8.87269 18.882C8.87269 18.8702 8.83994 18.8258 8.79991 18.7832C8.75556 18.736 8.72213 18.6796 8.71431 18.6387C8.68984 18.5109 8.79356 18.2428 9.00161 17.8961C9.13506 17.6737 9.14513 17.627 9.09667 17.4555C9.04938 17.2882 9.0251 17.0675 9.00263 16.6004C8.98141 16.1595 8.9937 16.0477 9.08302 15.869C9.15461 15.7259 9.17163 15.7029 9.24942 15.644C9.32676 15.5855 9.38423 15.5924 9.45811 15.6693C9.49282 15.7054 9.52357 15.7318 9.52648 15.7281C9.52936 15.7245 9.54242 15.6725 9.55553 15.6127C9.59086 15.4513 9.62714 15.3746 9.6964 15.315C9.75624 15.2635 9.76506 15.2615 9.93011 15.2636C10.1378 15.2662 10.2957 15.2259 10.3723 15.1507C10.422 15.102 10.4251 15.0901 10.4251 14.9463C10.4251 14.7024 10.468 14.6591 10.8783 14.4886C11.1692 14.3678 11.3559 14.2466 11.4568 14.113C11.4963 14.0607 11.5788 13.916 11.6402 13.7914C11.764 13.5401 11.8908 13.3789 12.1265 13.1733M4.25469 14.7112C4.94493 14.5647 6.34345 14.3596 6.41567 14.7112C6.50595 15.1507 6.77426 15.436 7.00668 15.1507C7.23909 14.8654 7.21335 15.5501 7.83727 14.5555C8.46118 13.5609 9.01614 12.4223 9.3459 12.6572C9.67567 12.8921 9.94022 12.8267 10 13C10.0598 13.1733 10.3672 13.1733 10.7549 13.1733C11.1426 13.1733 12.1265 13.0137 12.1265 13.1733M12.1265 13.1733C12.2916 13.0293 13.0241 12.4632 13.226 12.3235C13.3052 12.2687 13.3864 12.202 13.4063 12.1753L13.4426 12.1268L13.3817 12.0514C13.2451 11.8823 13.3045 11.6764 13.5641 11.4192C13.7831 11.2023 14.1425 10.9818 14.2319 11.0097C14.2961 11.0296 14.278 11.1052 14.1858 11.2018C14.1401 11.2498 14.1027 11.3013 14.1027 11.3163C14.1027 11.3581 14.2412 11.387 14.3765 11.3735C14.5278 11.3584 14.627 11.3184 14.6871 11.2484C14.7313 11.1969 14.7346 11.1817 14.7265 11.0707C14.7191 10.9689 14.6993 10.9121 14.6042 10.719C14.5417 10.5923 14.4451 10.4183 14.3894 10.3321C14.2193 10.0689 14.1954 9.92811 14.287 9.72741C14.3459 9.59818 14.3214 9.56266 14.0988 9.45507C13.8787 9.34866 13.8342 9.29735 13.8358 9.15218C13.8376 8.99696 13.9404 8.83948 14.0715 8.7909C14.1357 8.76712 14.2585 8.76601 14.3384 8.78847C14.3714 8.79775 14.3984 8.79934 14.3984 8.79204C14.3984 8.76194 14.2799 8.62376 14.2346 8.60103C14.2078 8.58757 14.1491 8.57059 14.1043 8.56326C14.0067 8.54735 13.9466 8.49353 13.9195 8.3979C13.858 8.18067 13.9494 7.9652 14.1119 7.94443C14.1757 7.93629 14.2018 7.94517 14.3023 8.0092C14.4334 8.09272 14.5796 8.1663 14.7333 8.22612C14.8759 8.28159 14.9373 8.34812 14.9481 8.45879C14.9528 8.50694 14.9478 8.57814 14.9368 8.617C14.8965 8.76014 14.9421 8.76315 15.508 8.65482C16.4579 8.47294 16.6441 8.50004 16.6109 8.81525C16.5895 9.01876 16.4844 9.14816 16.2561 9.25219C15.9824 9.37695 15.8876 9.50706 15.8866 9.75927C15.8861 9.88112 15.894 9.92014 15.9362 10.0039C15.9857 10.1022 16.1086 10.2422 16.1767 10.2779C16.2105 10.2957 16.2112 10.287 16.1993 10.0096C16.1871 9.72763 16.1876 9.72201 16.2311 9.65987C16.3649 9.46837 16.6453 9.53555 16.7186 9.77667C16.7338 9.8269 16.7545 9.96586 16.7645 10.0855C16.7878 10.3651 16.8228 10.4841 16.9038 10.5591C16.9823 10.6316 17.07 10.6539 17.1124 10.6121C17.1622 10.5632 17.1502 10.0764 17.0893 9.67129C17.0348 9.30879 17.0406 9.22909 17.1241 9.19179C17.1818 9.16601 17.232 9.18317 17.3863 9.28143C17.537 9.3774 17.5893 9.37327 17.6456 9.26091C17.724 9.1045 17.7532 8.70003 17.7041 8.45245C17.676 8.31071 17.7126 8.15427 17.818 7.96591C17.9001 7.81933 17.9141 7.70069 17.8635 7.58183C17.8323 7.50868 17.8277 7.41742 17.852 7.35468C17.8719 7.30334 18.0147 7.16721 18.3045 6.92338L18.5239 6.73884L18.621 6.74491L18.7181 6.751L18.7096 6.68757C18.7032 6.64056 18.7156 6.59696 18.7575 6.51916C18.7957 6.44836 18.8067 6.41228 18.7915 6.40835C18.4308 6.31507 18.3504 6.27323 18.2839 6.14436C18.2519 6.08242 18.2423 6.03273 18.2423 5.92987C18.2423 5.77434 18.2124 5.69845 18.1195 5.61848C18.0431 5.55269 17.9998 5.55023 17.9223 5.60728C17.7501 5.73393 17.5556 5.78725 17.2953 5.77918L17.1264 5.77393L17.097 5.89236C17.043 6.10957 16.8961 6.27886 16.5863 6.48098C16.4997 6.53752 16.4064 6.6124 16.3792 6.64739C16.2269 6.84271 16.177 6.8811 15.998 6.94077L15.9048 6.97184L15.9786 6.9847C16.1001 7.0059 16.1162 7.01404 16.145 7.06852C16.178 7.13106 16.1813 7.32572 16.1515 7.44207C16.1357 7.50356 16.1185 7.52842 16.0827 7.54178C15.9962 7.57401 15.6132 7.62902 15.3501 7.64697C15.2078 7.65669 15.0094 7.68128 14.9092 7.70165C14.5231 7.78005 14.3266 7.72852 14.1792 7.51028C14.0828 7.36762 14.0449 7.24236 14.0316 7.02283L14.0195 6.82349L13.9686 6.82691C13.8461 6.83516 13.6894 7.00605 13.6664 7.15643C13.6471 7.28256 13.69 7.54364 13.766 7.76221L13.834 7.95791L13.7974 8.02498C13.7283 8.15146 13.5586 8.16016 12.6704 8.0827C12.0516 8.02872 11.9489 8.00577 11.7268 7.87172C11.413 7.68231 11.2713 7.63853 10.7699 7.57594C10.601 7.55484 10.4231 7.52585 10.3746 7.51149C10.3261 7.49714 10.1665 7.4205 10.0198 7.34118C9.71439 7.176 9.39236 7.04605 9.04966 6.94967C8.91865 6.91283 8.78467 6.87171 8.7519 6.8583C8.57582 6.78614 8.51008 6.647 8.52624 6.38049C8.54189 6.12211 8.62326 5.95107 8.84277 5.71519C8.89989 5.65381 8.94661 5.59095 8.94661 5.57547C8.94661 5.52207 8.84576 5.45605 8.60554 5.35219C8.15119 5.15575 7.93118 5.01912 7.69293 4.78549C7.47385 4.57066 7.32033 4.3195 7.32033 4.17594C7.32033 4.07498 7.36415 3.96371 7.43106 3.89474C7.54333 3.77899 7.64673 3.81013 7.69047 3.97283C7.70199 4.01572 7.72348 4.06924 7.73819 4.09176C7.76297 4.12967 7.7687 4.13081 7.81524 4.10707C7.89385 4.06697 7.94915 3.99858 7.96103 3.92671C7.97077 3.86786 7.9614 3.84682 7.87308 3.7293C7.70635 3.50745 7.57577 3.31164 7.5396 3.22928C7.49854 3.13573 7.49499 3.00811 7.53152 2.93883C7.56878 2.86816 7.79254 2.66555 7.96216 2.54892C8.14862 2.42069 8.18902 2.37647 8.21726 2.26971C8.29009 1.99434 8.08017 1.78799 7.7269 1.78768C7.6096 1.78759 7.36276 1.85928 6.86756 2.03729C6.69739 2.09846 6.40808 2.10373 6.22723 2.04896C5.99615 1.97898 5.89439 1.86042 5.8702 1.63297C5.84372 1.3841 5.67375 1.20188 5.4037 1.13291C5.27927 1.10112 5.24922 1.10125 5.06369 1.13418C4.80972 1.17927 4.19968 1.3967 4.01766 1.50702C3.93735 1.5557 3.92225 1.63576 3.9724 1.74696C4.01581 1.84322 4.06451 1.87641 4.29492 1.96689C4.3843 2.00199 4.49063 2.05127 4.53123 2.0764C4.71621 2.19092 4.86242 2.36844 4.86242 2.47855C4.86242 2.56158 4.80624 2.61147 4.64452 2.67208C4.42608 2.75393 4.41858 2.78842 4.52728 3.21121C4.61831 3.56522 4.6557 3.64241 4.80672 3.78803C4.95283 3.92892 5.11622 4.01793 5.39043 4.106C5.616 4.17848 5.6386 4.19176 5.6386 4.25194C5.6386 4.31044 5.58083 4.34302 5.3968 4.38835C5.07245 4.46825 5.02631 4.53573 5.12906 4.77986C5.21244 4.97795 5.18585 5.11272 5.04218 5.22004C4.94442 5.29308 4.8697 5.39733 4.8411 5.50057C4.79384 5.67119 4.78078 5.69843 4.71545 5.76249C4.66193 5.81497 4.6183 5.83688 4.51891 5.86122C4.30982 5.9124 4.26569 5.95932 4.24445 6.15299C4.22318 6.34689 4.21575 6.37306 4.15743 6.45941C4.12579 6.50624 4.03513 6.59292 3.95594 6.65203C3.78 6.78337 3.747 6.8272 3.70067 6.99112C3.64781 7.17817 3.60956 7.24733 3.50098 7.35207C3.24176 7.60218 2.8107 7.66589 2.73916 7.46467C2.72791 7.43297 2.71869 7.36797 2.71869 7.32021C2.71869 7.27244 2.71209 7.22937 2.70401 7.22448C2.67515 7.20699 2.54174 7.28152 2.46284 7.35921C2.37739 7.44334 2.13143 7.83345 2.07908 7.96788C2.04023 8.06764 2.04884 8.07728 2.20903 8.11311C2.43124 8.1628 2.48313 8.25816 2.42023 8.50107C2.40147 8.5735 2.39101 8.63749 2.39698 8.64329C2.40295 8.64909 2.46223 8.65382 2.52872 8.65382C2.639 8.65382 2.65297 8.65819 2.68769 8.70358C2.72373 8.75065 2.7243 8.75802 2.69828 8.8395C2.6589 8.9628 2.6781 9.04172 2.7706 9.1367C2.84489 9.21297 2.90651 9.31618 2.94608 9.42105M3.15209 10.131L2.98242 9.54632M2.94608 9.42105L2.98242 9.54632M2.94608 9.42105C2.96194 9.46308 2.97425 9.50538 2.98242 9.54632M5.08419 1.01055C4.91834 1.04067 4.66494 1.11711 4.40965 1.21399C4.03993 1.35431 3.91179 1.42053 3.86435 1.49579C3.78686 1.61875 3.83881 1.83193 3.97261 1.94011C4.00923 1.9697 4.09759 2.01553 4.16898 2.04192C4.35578 2.11101 4.47224 2.17044 4.56404 2.24349C4.6406 2.30443 4.75154 2.4364 4.75154 2.46655C4.75154 2.49696 4.6941 2.53408 4.60065 2.56405C4.33447 2.64942 4.2937 2.77814 4.39939 3.19952C4.4704 3.48257 4.51702 3.61134 4.58753 3.71906C4.71438 3.91291 4.98998 4.09756 5.30967 4.2029L5.46145 4.25292L5.33493 4.28407C5.13758 4.33269 5.03616 4.39409 4.98079 4.49842C4.94326 4.56917 4.94941 4.65197 5.0014 4.77569C5.06639 4.93038 5.07419 4.98792 5.03915 5.05439C5.02274 5.08549 5.00306 5.11095 4.99539 5.11095C4.97146 5.11095 4.84069 5.24369 4.79541 5.31397C4.77165 5.35087 4.73796 5.43242 4.72057 5.49519C4.66897 5.68138 4.63308 5.71394 4.41551 5.77192C4.22002 5.824 4.14954 5.92088 4.12289 6.1741C4.10265 6.36648 4.06107 6.43209 3.87011 6.57302C3.68882 6.70684 3.6518 6.7576 3.58721 6.96107C3.52122 7.169 3.46103 7.25599 3.31932 7.34821C3.19861 7.42679 3.08035 7.46682 2.96893 7.46682C2.87078 7.46682 2.84805 7.44279 2.84805 7.33904C2.84805 7.18178 2.79797 7.10414 2.6968 7.10456C2.62418 7.10485 2.46532 7.18878 2.38118 7.27129C2.30132 7.34959 2.10946 7.64621 2.00007 7.86045C1.90057 8.05534 1.93593 8.16606 2.11132 8.20887C2.1557 8.21971 2.21677 8.2348 2.24705 8.24241C2.27733 8.25004 2.3142 8.27741 2.32899 8.30323C2.35314 8.34544 2.3517 8.36392 2.31463 8.48637C2.24852 8.70474 2.28828 8.76415 2.49487 8.75572L2.61294 8.75092L2.59755 8.8111C2.58328 8.86679 2.57936 9.02498 2.59063 9.08906C2.5933 9.10417 2.63974 9.16668 2.69385 9.22793C2.8119 9.3616 2.86653 9.49284 2.86653 9.64272C2.86653 9.77275 2.85284 9.78189 2.71719 9.7424C2.56521 9.69812 2.36963 9.70503 2.23819 9.75927C2.08721 9.82159 1.95875 9.81905 1.75859 9.74985C1.67267 9.72014 1.5879 9.69584 1.5702 9.69584C1.50773 9.69584 1.44117 9.77382 1.42322 9.86798C1.41382 9.91737 1.39421 9.96943 1.37966 9.98371C1.36403 9.99904 1.29665 10.0142 1.21509 10.0208C1.04143 10.0347 1 10.0655 1 10.1809C1 10.319 1.13679 10.5298 1.35261 10.724C1.56423 10.9145 1.82589 11.0062 2.04023 10.9648C2.15322 10.943 2.29275 10.8836 2.39173 10.8151C2.46419 10.765 2.47565 10.7892 2.42433 10.8841C2.33117 11.0563 2.12047 11.1834 1.92074 11.1879C1.82225 11.1901 1.80481 11.1852 1.77847 11.1479C1.67422 11.0002 1.60555 10.9831 1.50637 11.0804C1.33598 11.2475 1.48905 11.4852 2.06028 11.9408C2.51838 12.3061 2.76539 12.3845 3.15209 12.2875C3.30313 12.2496 3.38049 12.2115 3.5069 12.1124C3.64777 12.0019 3.76825 11.6254 3.74443 11.37L3.73241 11.241L3.78364 11.2313C3.85204 11.2185 3.91992 11.2458 3.91992 11.286C3.91992 11.3039 3.90308 11.3755 3.8825 11.445C3.86193 11.5146 3.84017 11.649 3.83417 11.7436C3.82471 11.8931 3.82864 11.9301 3.86411 12.0245C4.00116 12.3895 3.99835 12.3776 3.98902 12.5501C3.98288 12.6634 3.96252 12.7678 3.92234 12.8921C3.83428 13.1644 3.84587 13.2397 4.00073 13.4018C4.04834 13.4516 4.09201 13.5103 4.09777 13.5322C4.11115 13.5832 4.07813 13.6842 4.00829 13.8058C3.88978 14.0123 3.91208 14.1451 4.18626 14.8654C4.284 15.1223 4.41059 15.4712 4.46755 15.6409C4.57943 15.974 4.6537 16.114 4.86972 16.3985C4.93627 16.4861 5.01572 16.6102 5.04627 16.6742C5.11163 16.8112 5.17659 17.0477 5.17659 17.1486C5.17659 17.3356 5.32362 17.8564 5.45417 18.1317C5.55932 18.3535 5.70613 18.5796 5.85926 18.7556C6.10442 19.0374 6.23345 19.3332 6.41567 20.031C6.45751 20.1912 6.51698 20.3717 6.54784 20.4321C6.66799 20.6672 6.84824 20.8707 7.00668 20.9499C7.18132 21.0373 7.43511 21.008 7.60707 20.8805C7.70153 20.8105 7.71376 20.7887 7.83727 20.4694C7.86811 20.3897 7.90067 20.3133 7.9096 20.2997C7.91884 20.2855 8.02312 20.2566 8.15188 20.2324C8.27621 20.2091 8.40615 20.1809 8.44065 20.1697C8.56553 20.1293 8.56349 20.0305 8.43653 19.9702C8.39194 19.949 8.35158 19.9256 8.34687 19.9181C8.34215 19.9106 8.3754 19.8789 8.42077 19.8475C8.54209 19.7636 8.57685 19.697 8.57693 19.5479L8.577 19.4238L8.65554 19.4336C8.91758 19.4664 8.9473 19.4675 8.9743 19.4456C9.01464 19.4127 9.00843 19.3469 8.95585 19.25C8.89999 19.1471 8.8983 19.1035 8.94661 19.0106C9.00579 18.8969 8.99608 18.8238 8.90965 18.7318C8.84661 18.6647 8.83578 18.6415 8.83606 18.5736C8.83647 18.4796 8.93085 18.244 9.04214 18.0592C9.25799 17.7008 9.2691 17.6576 9.20794 17.415C9.15278 17.1961 9.12767 16.9038 9.12473 16.4463L9.12218 16.0476L9.17405 15.9389C9.22796 15.8259 9.30661 15.7305 9.3459 15.7305C9.35841 15.7305 9.38671 15.7592 9.40877 15.7942C9.45647 15.8698 9.5069 15.9 9.55885 15.8838C9.60494 15.8694 9.63429 15.8024 9.67567 15.6167C9.69467 15.5314 9.72366 15.4568 9.749 15.4279C9.7889 15.3824 9.80023 15.3799 9.98324 15.3769C10.1953 15.3735 10.3404 15.3326 10.4442 15.2469C10.5305 15.1758 10.5444 15.1366 10.5448 14.9634C10.5452 14.8076 10.5467 14.802 10.6022 14.7534C10.6335 14.7259 10.725 14.677 10.8055 14.6448C11.208 14.4836 11.4068 14.3634 11.5374 14.2023C11.5792 14.1507 11.6608 14.0107 11.7188 13.8911C11.7768 13.7715 11.8634 13.6229 11.9113 13.5609C12.0163 13.4247 12.2364 13.2216 12.4829 13.0334C12.583 12.957 12.7535 12.8243 12.8617 12.7387C12.97 12.6531 13.1386 12.5288 13.2364 12.4625C13.5527 12.2482 13.6084 12.149 13.4924 12.0059C13.4617 11.968 13.4318 11.9184 13.426 11.8956C13.3912 11.7598 13.6113 11.4855 13.9248 11.274L14.0068 11.2187L13.9865 11.2715C13.9595 11.3416 13.9895 11.4054 14.0695 11.4483C14.1655 11.4997 14.4872 11.494 14.6109 11.4388C14.8117 11.349 14.8856 11.2135 14.8438 11.0116C14.8121 10.8586 14.6901 10.5988 14.523 10.3288C14.3372 10.0284 14.3249 9.9796 14.3894 9.79653C14.4515 9.61984 14.4422 9.55041 14.3443 9.46042C14.3062 9.42544 14.2151 9.3733 14.1419 9.34454C13.9914 9.28541 13.9548 9.24678 13.9548 9.14696C13.9548 9.07043 13.9759 9.02038 14.0357 8.95544C14.0999 8.88566 14.152 8.8752 14.3101 8.90032C14.4416 8.92118 14.4559 8.92034 14.4903 8.88979C14.5377 8.84773 14.5375 8.80706 14.4893 8.71448C14.4101 8.56227 14.2451 8.44585 14.1079 8.44553C14.0529 8.44538 14.0235 8.38549 14.0235 8.27371C14.0235 8.17632 14.0642 8.07627 14.111 8.05865C14.127 8.05262 14.206 8.08731 14.2951 8.1395C14.3809 8.18979 14.5244 8.26189 14.614 8.29973C14.7115 8.34098 14.7912 8.3875 14.8128 8.41582C14.8462 8.4597 14.847 8.47158 14.8248 8.58148C14.7683 8.85983 14.8751 8.89329 15.4647 8.78202C16.0575 8.67011 16.2893 8.63916 16.401 8.65692C16.4948 8.67185 16.5183 8.7362 16.4786 8.86991C16.4379 9.00709 16.3666 9.081 16.2149 9.14306C16.0011 9.23056 15.8953 9.32421 15.8198 9.49289C15.7695 9.60532 15.7477 9.76237 15.7676 9.86871C15.7911 9.99364 15.8815 10.1668 15.9699 10.2562C16.113 10.4007 16.2262 10.4385 16.2944 10.3643C16.3249 10.3311 16.3284 10.305 16.3212 10.1694C16.3025 9.82166 16.3079 9.7362 16.351 9.69397C16.4031 9.64285 16.5056 9.65858 16.5597 9.72607C16.6111 9.79017 16.628 9.86539 16.6513 10.1343C16.6813 10.4809 16.7503 10.6297 16.918 10.7093C17.0799 10.7861 17.2024 10.7453 17.2448 10.6004C17.2745 10.4989 17.2646 10.1037 17.2251 9.81364C17.1738 9.43622 17.1621 9.29716 17.1819 9.29716C17.1911 9.29716 17.243 9.32644 17.2972 9.36223C17.5584 9.5347 17.6889 9.50478 17.7839 9.25065C17.8185 9.15818 17.8243 9.10379 17.8253 8.86223C17.826 8.70773 17.8193 8.50794 17.8105 8.41823L17.7945 8.25513L17.8638 8.12828C17.9887 7.89974 18.004 7.86415 18.0142 7.77825C18.0214 7.71823 18.0129 7.66031 17.9855 7.58067C17.9641 7.51867 17.9466 7.4555 17.9466 7.44026C17.9466 7.39752 18.0623 7.28136 18.331 7.05409C18.6102 6.81805 18.6179 6.81582 18.7878 6.92149C18.9219 7.00491 19 6.99119 19 6.88422C19 6.84757 18.9817 6.82124 18.9307 6.78467C18.8008 6.69145 18.8005 6.68866 18.9029 6.49455C18.9758 6.35628 18.9544 6.32312 18.7664 6.28321C18.5817 6.244 18.4393 6.17907 18.3962 6.11433C18.3714 6.07713 18.3635 6.03463 18.3664 5.95428C18.3723 5.79049 18.3293 5.66677 18.2303 5.56293C18.0954 5.42156 17.9905 5.40877 17.8466 5.51616C17.6866 5.63558 17.4903 5.68243 17.2349 5.66211C17.0495 5.64736 17.0212 5.66645 16.9884 5.82837C16.9454 6.04141 16.8121 6.1984 16.5095 6.39278C16.4032 6.46105 16.3257 6.52906 16.2547 6.6163C16.1426 6.75404 16.1006 6.78132 15.8953 6.84976C15.7641 6.89349 15.7564 6.89911 15.7509 6.95446C15.746 7.00404 15.7545 7.01852 15.8063 7.04952C15.84 7.06964 15.9069 7.09124 15.9549 7.09751C16.0372 7.10828 16.043 7.11268 16.0545 7.17279C16.0613 7.20791 16.0593 7.28228 16.0503 7.33806L16.0339 7.43946L15.8676 7.47027C15.7761 7.48719 15.5474 7.51387 15.3593 7.52951C15.1713 7.54515 14.9676 7.56985 14.9066 7.58442C14.8456 7.59897 14.7375 7.6158 14.6663 7.62184C14.5487 7.63181 14.5277 7.62813 14.4354 7.58152C14.2541 7.48995 14.1581 7.29401 14.1581 7.0154C14.1581 6.78164 14.1191 6.70569 13.9991 6.70569C13.8528 6.70569 13.6733 6.83764 13.5925 7.00471C13.5583 7.07533 13.5486 7.12586 13.5484 7.23377C13.5482 7.40039 13.5895 7.62546 13.651 7.7925C13.7035 7.93546 13.7073 7.98426 13.6669 7.99949C13.5804 8.03203 12.7427 7.98941 12.2887 7.92935C12.0492 7.89766 11.9223 7.8556 11.7491 7.75058C11.442 7.56426 11.301 7.52371 10.7017 7.4493C10.4413 7.41697 10.4035 7.40753 10.2772 7.34334C9.68886 7.04416 9.58408 6.99732 9.30578 6.90895C9.14382 6.85754 8.96409 6.80259 8.90642 6.78686C8.68266 6.72586 8.61942 6.62748 8.64093 6.37386C8.66031 6.14521 8.73496 5.99846 8.93745 5.79087C9.07147 5.65347 9.0869 5.61541 9.04851 5.51681C9.01131 5.42133 8.94107 5.37289 8.66815 5.25458C8.21536 5.0583 8.02728 4.94178 7.78537 4.70759C7.48462 4.41644 7.38198 4.18596 7.47987 4.02159C7.52879 3.93946 7.55361 3.93861 7.57948 4.01815C7.64278 4.21269 7.70609 4.26379 7.83643 4.2255C7.92675 4.19897 8.05079 4.06847 8.07723 3.97217C8.10614 3.86692 8.07513 3.79769 7.88548 3.54397C7.70023 3.29613 7.61604 3.14466 7.61598 3.05915C7.61594 3.00887 7.63684 2.98019 7.75176 2.87287C7.82645 2.8031 7.94015 2.70932 8.0044 2.66446C8.28915 2.46572 8.34515 2.38531 8.34515 2.17517C8.34515 1.96948 8.26503 1.84192 8.07803 1.7499C7.9567 1.69017 7.81243 1.66184 7.68317 1.67233C7.57163 1.68139 7.1658 1.8023 6.89655 1.90669C6.58965 2.02568 6.16482 1.97749 6.04312 1.8099C6.01723 1.77423 5.99868 1.71062 5.98868 1.62326C5.98035 1.55033 5.96037 1.4598 5.94427 1.42205C5.87381 1.25667 5.66196 1.0819 5.4633 1.02526C5.37078 0.998897 5.18757 0.991775 5.08419 1.01055Z" stroke="black" stroke-width="0.5"/>
</svg>
